<svg width="180" height="42" viewBox="0 0 180 42" fill="none" xmlns="http://www.w3.org/2000/svg">
<g clip-path="url(#clip0_182_1065)">
<path d="M21.4541 42C7.87555 42 0 37.0637 0 24.0937C0 12.7515 6.02593 0 21.5642 0C37.1024 0 42.9155 13.1358 42.9155 24.0937C42.9155 37.0637 35.0913 42 21.4614 42H21.4541ZM26.9002 20.9435C26.9002 5.96878 26.6873 1.29625 21.4541 1.29625C16.2208 1.29625 16.0667 5.96124 16.0667 20.9435C16.0667 35.9257 16.2282 40.6435 21.4541 40.6435C26.68 40.6435 26.9002 35.9785 26.9002 20.9435Z" fill="#231F20"/>
<path d="M70.0209 41.3519L50.6293 3.79834H50.4164L50.6293 37.1692C50.6293 39.8296 50.6807 40.3194 52.956 40.3194V41.3519H46.2988V40.3194C48.1998 40.3194 48.4641 40.0481 48.5154 37.3878L49.0953 3.25572C49.0953 2.00469 48.0897 1.40932 46.5557 1.40932V0.437134H63.1509V0.602933C63.1509 1.52237 63.7307 2.6076 64.3693 3.58732L79.4305 26.2717H79.5332L79.7974 4.67255C79.8488 1.95947 78.8433 1.46961 76.3624 1.46961V0.437134H84.238V1.46961C82.337 1.46961 80.9057 1.74092 80.9645 4.40125L81.5443 41.3594H70.0209V41.3519Z" fill="#231F20"/>
<path d="M108.71 42C95.1241 42 87.2559 37.0637 87.2559 24.0937C87.2559 12.7515 93.2818 0 108.82 0C124.358 0 130.171 13.1358 130.171 24.0937C130.171 37.0637 122.347 42 108.717 42H108.71ZM114.149 20.9435C114.149 5.96878 113.936 1.29625 108.703 1.29625C103.469 1.29625 103.315 5.96124 103.315 20.9435C103.315 35.9257 103.477 40.6435 108.703 40.6435C113.929 40.6435 114.149 35.9785 114.149 20.9435Z" fill="#231F20"/>
<path d="M159.331 41.3519V40.3194C161.232 40.3194 161.657 39.7768 161.812 37.3878L162.817 20.4536H150.611L151.565 37.3878C151.727 39.7768 152.145 40.3194 154.105 40.3194V41.3519H133.385V40.3194C135.183 40.3194 135.814 39.8823 135.976 37.3878L137.877 4.88357C138.038 2.11774 137.084 1.40932 134.655 1.40932V0.437134H152.886V1.41686C149.767 1.41686 149.503 2.17803 149.664 4.89111L150.457 19.1122H162.876L163.72 4.89111C163.881 2.17803 163.617 1.41686 160.549 1.41686V0.437134H178.73V1.41686C176.454 1.41686 175.397 1.95947 175.559 4.89111L177.409 37.3953C177.57 39.7843 178.099 40.327 180 40.327V41.3594H159.338L159.331 41.3519Z" fill="#231F20"/>
</g>
<defs>
<clipPath id="clip0_182_1065">
<rect width="180" height="42" fill="white"/>
</clipPath>
</defs>
</svg>
