<?xml version="1.0" encoding="UTF-8"?>
<svg id="Layer_1" xmlns="http://www.w3.org/2000/svg" viewBox="0 0 162.7 36.98">
  <defs>
    <style>
      .cls-1 {
        fill: #231f20;
      }
    </style>
  </defs>
  <path class="cls-1" d="M19.4,36.98C7.12,36.98,0,32.63,0,21.21,0,11.23,5.45,0,19.49,0s19.3,11.56,19.3,21.21c0,11.42-7.07,15.77-19.4,15.77ZM24.32,18.44c0-13.19-.19-17.29-4.92-17.29s-4.87,4.11-4.87,17.29.14,17.34,4.87,17.34,4.92-4.11,4.92-17.34Z"/>
  <path class="cls-1" d="M63.29,36.4L45.76,3.34h-.19l.19,29.38c0,2.34.05,2.77,2.1,2.77v.91h-6.02v-.91c1.72,0,1.96-.24,2.01-2.58l.53-30.05c0-1.1-.91-1.62-2.29-1.62V.38h15v.14c0,.81.53,1.77,1.1,2.63l13.62,19.97h.1l.24-19.01c.05-2.39-.86-2.82-3.11-2.82V.38h7.12v.91c-1.72,0-3.01.24-2.96,2.58l.53,32.53h-10.41Z"/>
  <path class="cls-1" d="M98.26,36.98c-12.28,0-19.4-4.35-19.4-15.77,0-9.98,5.45-21.21,19.49-21.21s19.3,11.56,19.3,21.21c0,11.42-7.07,15.77-19.4,15.77ZM103.18,18.44c0-13.19-.19-17.29-4.92-17.29s-4.87,4.11-4.87,17.29.14,17.34,4.87,17.34,4.92-4.11,4.92-17.34Z"/>
  <path class="cls-1" d="M144.02,36.4v-.91c1.72,0,2.1-.48,2.24-2.58l.91-14.91h-11.04l.86,14.91c.14,2.1.53,2.58,2.29,2.58v.91h-18.73v-.91c1.62,0,2.2-.38,2.34-2.58l1.72-28.62c.14-2.44-.72-3.06-2.91-3.06V.38h16.48v.86c-2.82,0-3.06.67-2.91,3.06l.72,12.52h11.23l.76-12.52c.14-2.39-.1-3.06-2.87-3.06V.38h16.43v.86c-2.05,0-3.01.48-2.87,3.06l1.67,28.62c.14,2.1.62,2.58,2.34,2.58v.91h-18.68Z"/>
</svg>